<svg width="34px" height="34px" viewBox="0 0 34 34" version="1.1" xmlns="http://www.w3.org/2000/svg" xmlns:xlink="http://www.w3.org/1999/xlink">
    <g id="Symbols" stroke="none" stroke-width="1" fill="none" fill-rule="evenodd">
        <g id="header/logged-off" transform="translate(-1250.000000, -8.000000)" fill-rule="nonzero">
            <g id="Header-(logged-off)">
                <g id="english" transform="translate(1250.000000, 8.000000)">
                    <circle id="Oval" fill="#F0F0F0" cx="17" cy="17" r="17"></circle>
                    <g id="Group" transform="translate(0.496350, 3.606061)" fill="#D80027">
                        <path d="M15.7460506,13.3680127 L33.5036496,13.3680127 C33.5036496,11.8312898 33.2989051,10.3425854 32.9174022,8.92644062 L15.7460506,8.92644062 L15.7460506,13.3680127 Z" id="Path"></path>
                        <path d="M15.7460506,4.48493502 L31.0058994,4.48493502 C29.9641619,2.78420456 28.6321924,1.28093495 27.0791919,0.043362907 L15.7460506,0.043362907 L15.7460506,4.48493502 Z" id="Path"></path>
                        <path d="M16.4859228,30.3939394 C20.491005,30.3939394 24.1722185,29.0089867 27.0791919,26.6926626 L5.89265381,26.6926626 C8.79962722,29.0089867 12.4808407,30.3939394 16.4859228,30.3939394 Z" id="Path"></path>
                        <path d="M1.9659463,22.2510904 L31.0058994,22.2510904 C31.8422276,20.8857574 32.490829,19.3933286 32.9174022,17.8095183 L0.0544434307,17.8095183 C0.481016684,19.3933286 1.12961809,20.8857574 1.9659463,22.2510904 Z" id="Path"></path>
                    </g>
                    <path d="M7.93219845,2.65478906 L9.49269782,2.65478906 L8.04116383,3.70168359 L8.59562306,5.39564063 L7.14415596,4.34874609 L5.69268887,5.39564062 L6.17162819,3.93224609 C4.89360937,4.98910156 3.77345324,6.2273125 2.85035789,7.60696875 L3.35036787,7.60696875 L2.42640294,8.27335547 C2.28245358,8.51175391 2.14439062,8.7539375 2.01208029,8.99970703 L2.45329311,10.3478203 L1.63013287,9.75408203 C1.4255134,10.1844609 1.23835247,10.6245352 1.07012169,11.0737734 L1.55621835,12.5591484 L3.35036787,12.5591484 L1.89883388,13.606043 L2.45329311,15.3 L1.00182602,14.2531055 L0.132377224,14.8802461 C0.0453520757,15.5747227 0,16.282082 0,17 L17.1240876,17 C17.1240876,7.61121875 17.1240876,6.50435938 17.1240876,0 C13.7412776,0 10.5878367,0.974179687 7.93219845,2.65478906 Z M8.59562306,15.3 L7.14415596,14.2531055 L5.69268887,15.3 L6.2471481,13.606043 L4.79561411,12.5591484 L6.58976363,12.5591484 L7.14415596,10.8651914 L7.6985483,12.5591484 L9.49269782,12.5591484 L8.04116383,13.606043 L8.59562306,15.3 Z M8.04116383,8.65386328 L8.59562306,10.3478203 L7.14415596,9.30092578 L5.69268887,10.3478203 L6.2471481,8.65386328 L4.79561411,7.60696875 L6.58976363,7.60696875 L7.14415596,5.91301172 L7.6985483,7.60696875 L9.49269782,7.60696875 L8.04116383,8.65386328 Z M14.737953,15.3 L13.2864859,14.2531055 L11.8350188,15.3 L12.389478,13.606043 L10.9379441,12.5591484 L12.7320936,12.5591484 L13.2864859,10.8651914 L13.8408783,12.5591484 L15.6350278,12.5591484 L14.1834938,13.606043 L14.737953,15.3 Z M14.1834938,8.65386328 L14.737953,10.3478203 L13.2864859,9.30092578 L11.8350188,10.3478203 L12.389478,8.65386328 L10.9379441,7.60696875 L12.7320936,7.60696875 L13.2864859,5.91301172 L13.8408783,7.60696875 L15.6350278,7.60696875 L14.1834938,8.65386328 Z M14.1834938,3.70168359 L14.737953,5.39564062 L13.2864859,4.34874609 L11.8350188,5.39564062 L12.389478,3.70168359 L10.9379441,2.65478906 L12.7320936,2.65478906 L13.2864859,0.960832031 L13.8408783,2.65478906 L15.6350278,2.65478906 L14.1834938,3.70168359 Z" id="Shape" fill="#0052B4"></path>
                </g>
            </g>
        </g>
    </g>
</svg>