<svg width="140px" height="29px" viewBox="0 0 140 29" version="1.1" xmlns="http://www.w3.org/2000/svg" xmlns:xlink="http://www.w3.org/1999/xlink">
    <g id="logo-white-container" stroke="none" stroke-width="1" fill="none" fill-rule="evenodd">
        <g id="Drawer-white-inner" transform="translate(-148.000000, -32.000000)" fill-rule="nonzero">
            <g id="drawer" transform="translate(1.000000, 0.000000)">
                <g transform="translate(24.000000, 0.000000)" id="logo/white">
                    <g transform="translate(123.000000, 32.000000)">
                        <g id="logo-white">
                            <path d="M12.3337604,0.0177146667 L2.6922094,14.6058827 L6.92310336,14.6058827 L13.350804,4.42245067 L13.350804,14.6058827 L17.2155604,14.6058827 L17.2155604,0.0177146667 L12.3337604,0.0177146667 Z M0.454718121,18.4852873 L0.454718121,21.7181207 L13.350804,21.7181207 L13.350804,28.3858447 L17.2155604,28.3858447 L17.2155604,21.7181207 L21.2837255,21.7181207 L21.2837255,18.525696 C13.2694396,18.4852873 6.31287718,18.4852873 0.454718121,18.4852873 L0.454718121,18.4852873 Z" id="path-id-61075" fill="#FFFFFF"></path>
                            <path d="M36.2138893,0.0177146667 L30.5998235,14.646296 L34.3832154,14.646296 L38.4107007,3.77588867 L42.4381859,14.646296 L46.2215779,14.646296 L40.6075121,0.0177146667 L36.2138893,0.0177146667 Z M29.3386913,17.9195427 L25.311206,28.3858447 L29.3793711,28.3858447 L31.9829953,21.1119673 L44.8790812,21.1119673 L47.4827054,28.3858447 L51.5101906,28.3858447 L47.4827054,17.9195427 L29.3386913,17.9195427 Z" id="path-id-19881" fill="#FFFFFF"></path>
                            <path d="M57.0835765,0.0985366667 L57.0835765,17.5154373 C57.0835765,21.152376 58.0192557,23.9002867 59.8499295,25.7591693 C61.3144705,27.2139467 63.3892329,28.1029747 65.992857,28.426258 L65.992857,24.829728 C64.5283161,24.5468533 63.4299128,23.9407 62.6162779,23.0516673 C61.5585544,21.7181207 60.9890128,19.738012 60.9890128,17.0709233 L60.9890128,0.0985366667 L57.0835765,0.0985366667 Z M75.0648664,0.0985366667 L75.0648664,17.0709233 C75.0648664,19.738012 74.5360047,21.7181253 73.3969168,23.0516673 C72.5832819,23.9811087 71.4441987,24.587262 69.8982933,24.8701367 L69.8982933,28.4666667 C72.5832819,28.183792 74.6987289,27.294764 76.2039497,25.7591693 C78.0753034,23.9002913 78.9703027,21.1523807 78.9703027,17.5154373 L78.9703027,0.0985366667 L75.0648664,0.0985366667 Z" id="path-id-22586" fill="#FFFFFF"></path>
                            <path d="M82.9977879,0.058128 L82.9977879,3.29096133 L93.1275208,3.29096133 L93.1275208,3.33137 L97.032957,3.33137 L97.032957,3.29096133 L107.16269,3.29096133 L107.16269,0.058128 L82.9977879,0.058128 Z M93.1275208,7.21077467 L93.1275208,28.426258 L97.032957,28.426258 L97.032957,7.21077467 L93.1275208,7.21077467 Z" id="path-id-87093" fill="#FFFFFF"></path>
                            <path d="M127.178062,0.179358667 L127.178062,3.573836 C129.741007,3.937528 131.693725,4.90738267 133.036221,6.44297733 C134.826215,8.42309067 135.68053,11.049766 135.68053,14.282604 C135.68053,17.43462 134.826215,19.980478 133.036221,22.001 C131.693725,23.5365947 129.741007,24.466036 127.178062,24.8701413 L127.178062,28.3454407 C130.676686,28.0221573 133.483719,26.7694327 135.680526,24.5872713 C138.28415,22.0010047 139.545282,18.566114 139.545282,14.2826087 C139.545282,9.95869 138.28415,6.523804 135.680526,3.977946 C133.483714,1.75537133 130.676681,0.502646667 127.178062,0.179358667 L127.178062,0.179358667 Z M123.272621,0.219767333 C119.977407,0.583459333 117.251738,1.836184 115.095611,3.97793667 C112.532667,6.52379467 111.230855,9.95868067 111.230855,14.2825993 C111.230855,18.5661047 112.532667,22.0009953 115.095611,24.587262 C117.251738,26.688606 119.977411,27.9413307 123.272621,28.3050227 L123.272621,24.8297233 C120.953766,24.3852093 119.123092,23.455768 117.82128,22.0009907 C116.07197,19.9804687 115.176971,17.4346107 115.176971,14.2825947 C115.176971,11.0497613 116.071966,8.42308133 117.82128,6.442968 C119.123092,4.98819067 120.953766,4.01834067 123.272621,3.61423533 L123.272621,0.219767333 Z" id="path-id-29119" fill="#71A95A"></path>
                        </g>
                    </g>
                </g>
            </g>
        </g>
    </g>
</svg>