<svg id="logo_text" data-name="logo/text" xmlns="http://www.w3.org/2000/svg" width="122.028" height="32" viewBox="0 0 122.028 32">
  <g id="Group">
    <path id="path-id-61075" d="M14.748,31.909v-7.5H0V20.773c6.7,0,14.654,0,23.819.045v3.591H19.167v7.5Zm0-15.5V4.955L7.4,16.409H2.559L13.584,0h5.583V16.409Z" transform="translate(0)" fill="#211d1e"/>
    <path id="path-id-19881" d="M25.354,31.909l-2.977-8.182H7.63L4.652,31.909H0L4.606,20.137H25.354l4.606,11.773ZM19.586,16.455,14.98,4.227,10.374,16.455H6.048L12.468,0h5.024l6.42,16.455Z" transform="translate(28.425)" fill="#211d1e"/>
    <path id="path-id-22586" d="M14.654,27.864a6.7,6.7,0,0,0,4-2.046c1.3-1.5,1.908-3.727,1.908-6.727V0h4.466V19.591c0,4.091-1.024,7.182-3.163,9.273a11.5,11.5,0,0,1-7.211,3.046Zm-11.491,1C1.07,26.773,0,23.682,0,19.591V0H4.466V19.091c0,3,.651,5.227,1.861,6.727a6.8,6.8,0,0,0,3.862,2v4.046A11.825,11.825,0,0,1,3.164,28.864Z" transform="translate(64.759 0.091)" fill="#211d1e"/>
    <path id="path-id-87093" d="M11.584,31.909V8.045H16.05V31.909Zm0-28.227V3.636H0V0H27.634V3.636H16.05v.046Z" transform="translate(94.394 0.045)" fill="#211d1e"/>
  </g>
</svg>
