<svg width="34px" height="34px" viewBox="0 0 34 34" version="1.1" xmlns="http://www.w3.org/2000/svg" xmlns:xlink="http://www.w3.org/1999/xlink">
    <g id="logo-container-mini" stroke="none" stroke-width="1" fill="none" fill-rule="evenodd">
        <g id="logo/mini">
            <g id="logo">
                <circle id="logo-inner-oval" stroke="#71A95A" stroke-width="3" fill="#FAFAFA" cx="17" cy="17" r="15.5"></circle>
                <path d="M11.4642848,7.08333333 L5.19444444,18.8888889 L7.94576836,18.8888889 L12.125662,10.6478903 L12.125662,18.8888889 L14.6388889,18.8888889 L14.6388889,7.08333333 L11.4642848,7.08333333 Z M3.77777778,23.8804493 L11.9641935,23.8804493 L11.9641935,26.4444444 L14.417535,26.4444444 L14.417535,23.8804493 L17,23.8804493 L17,21.7491989 C11.9125435,21.7222222 7.49652824,21.7222222 3.77777778,21.7222222 L3.77777778,23.8804493 Z" id="path-id-61075" fill="#71A95A"></path>
                <g id="logo/mini" transform="translate(17.000000, 0.000000)" fill="#71A95A">
                    <path d="M0.0729276056,0.263926197 C9.20094592,0.362899718 16.584587,7.73670958 16.6988414,16.8597811 L16.6988414,17.2893592 C16.584587,26.4153614 9.20094592,33.7888839 0.0729276056,33.8878431 L0,33.8875 L0,23.7195 L3.44193972,23.7199851 C3.4604338,25.5615639 4.82354648,26.9425003 6.62309465,26.9425003 C8.41726507,26.9425003 9.77533521,25.5592127 9.78778113,23.7199851 L11.349947,23.7199851 L11.349947,22.0162642 L11.350287,22.0162546 L11.350287,16.756129 C11.3432285,15.0581211 10.3600634,13.7639375 9.18120676,13.1650969 L7.86247606,9.76672986 C7.25489127,8.15648028 5.88000789,7.21837718 4.09357127,7.20895775 L0,7.2085 L0,0.2635 L0.0729276056,0.263926197 Z M4.08381183,8.91334901 C5.32049718,8.92007239 5.97448479,9.59187887 6.27272704,10.3833893 L7.87457718,14.5134172 C8.51477803,14.5957977 9.63983324,15.3425814 9.64622141,16.756469 L9.64622141,22.0165946 L8.0843907,22.0165946 L8.0843907,23.6957732 C8.08304507,24.7280276 7.3547507,25.237769 6.62309465,25.237769 C5.8880769,25.237769 5.14935746,24.720969 5.14532535,23.6957732 L5.14532535,22.0165946 L0,22.0165 L0,14.4745 L6.22096085,14.4747434 L5.01386507,10.7132372 C4.86154986,10.1799639 4.63559352,9.79732028 4.10971887,9.78925127 L0,9.7885 L0,8.9125 L4.08381183,8.91334901 Z M6.57569099,17.4528177 C5.82150873,17.4447487 5.21627521,18.0704876 5.21156789,18.8434992 C5.21627521,19.6101225 5.82183915,20.2338454 6.57569099,20.2325067 C7.31575606,20.2338501 7.92165521,19.6101273 7.92669775,18.8434992 C7.92199042,18.0704876 7.31575127,17.4447439 6.57569099,17.4528177 Z M3.47456056,11.4929721 L3.88443296,12.7706825 L0,12.7705 L0,11.4925 L3.47456056,11.4929721 Z" id="Combined-Shape"></path>
                </g>
            </g>
        </g>
    </g>
</svg>