<svg width="190px" height="38px" viewBox="0 0 190 38" version="1.1" xmlns="http://www.w3.org/2000/svg" xmlns:xlink="http://www.w3.org/1999/xlink">
    <g id="Design---Mobile" stroke="none" stroke-width="1" fill="none" fill-rule="evenodd">
        <g id="Login" transform="translate(-65.000000, -32.000000)">
            <g id="logo/text" transform="translate(65.000000, 32.000000)">
                <g id="Group">
                    <path d="M16.7386748,0.0236472131 L3.65371275,19.4973141 L9.39564027,19.4973141 L18.1189483,5.90350557 L18.1189483,19.4973141 L23.3639748,19.4973141 L23.3639748,0.0236472131 L16.7386748,0.0236472131 Z M0.61711745,24.6759105 L0.61711745,28.9914023 L18.1189483,28.9914023 L18.1189483,37.8921111 L23.3639748,37.8921111 L23.3639748,28.9914023 L28.885056,28.9914023 L28.885056,24.7298518 C18.0085252,24.6759105 8.56747617,24.6759105 0.61711745,24.6759105 L0.61711745,24.6759105 Z" id="path-id-61075" fill="#211D1E" fill-rule="nonzero"></path>
                    <path d="M49.1474211,0.0236472131 L41.5283319,19.5512616 L46.6629352,19.5512616 L52.1288081,5.04041344 L57.5946809,19.5512616 L62.7292842,19.5512616 L55.110195,0.0236472131 L49.1474211,0.0236472131 Z M39.8167953,23.920701 L34.3509225,37.8921111 L39.8720037,37.8921111 L43.4054936,28.1822515 L60.9073245,28.1822515 L64.4408144,37.8921111 L69.9066872,37.8921111 L64.4408144,23.920701 L39.8167953,23.920701 Z" id="path-id-19881" fill="#211D1E" fill-rule="nonzero"></path>
                    <path d="M77.4705681,0.131536066 L77.4705681,23.381263 C77.4705681,28.2361928 78.7404185,31.9043639 81.2249044,34.3857764 C83.2124956,36.3277508 86.0282446,37.5145095 89.5617346,37.9460587 L89.5617346,33.1450702 C87.5741433,32.7674623 86.083453,31.9583115 84.9792342,30.7715466 C83.5437523,28.9914023 82.770803,26.3481659 82.770803,22.7878836 L82.770803,0.131536066 L77.4705681,0.131536066 Z M101.873747,0.131536066 L101.873747,22.7878836 C101.873747,26.3481659 101.156006,28.9914085 99.6101013,30.7715466 C98.5058826,32.0122528 96.9599839,32.8214036 94.8619695,33.1990115 L94.8619695,38 C98.5058826,37.6223921 101.376846,36.4356334 103.419646,34.3857764 C105.95934,31.9043702 107.173982,28.236199 107.173982,23.381263 L107.173982,0.131536066 L101.873747,0.131536066 Z" id="path-id-22586" fill="#211D1E" fill-rule="nonzero"></path>
                    <path d="M112.639855,0.0775947541 L112.639855,4.39308656 L126.38735,4.39308656 L126.38735,4.44702787 L131.687585,4.44702787 L131.687585,4.39308656 L145.435079,4.39308656 L145.435079,0.0775947541 L112.639855,0.0775947541 Z M126.38735,9.62562426 L126.38735,37.9460587 L131.687585,37.9460587 L131.687585,9.62562426 L126.38735,9.62562426 Z" id="path-id-87093" fill="#211D1E" fill-rule="nonzero"></path>
                    <path d="M172.598799,0.239424918 L172.598799,4.77069443 C176.077081,5.25618492 178.727198,6.55083869 180.549158,8.60069574 C182.978435,11.2439384 184.137862,14.7502731 184.137862,19.0657711 C184.137862,23.2733803 182.978435,26.6718325 180.549158,29.3690164 C178.727198,31.4188734 176.077081,32.6595797 172.598799,33.1990177 L172.598799,37.8381761 C177.346931,37.4066269 181.156476,35.7343715 184.137856,32.8214161 C187.671346,29.3690226 189.382883,24.7838056 189.382883,19.0657774 C189.382883,13.2938016 187.671346,8.70859082 184.137856,5.31013869 C181.156469,2.34323574 177.346924,0.670980328 172.598799,0.239424918 L172.598799,0.239424918 Z M167.298558,0.29336623 C162.826481,0.778856721 159.127359,2.45111213 156.201187,5.31012623 C152.722905,8.70857836 150.95616,13.2937892 150.95616,19.0657649 C150.95616,24.7837931 152.722905,29.3690102 156.201187,32.8214036 C159.127359,35.6264764 162.826487,37.2987318 167.298558,37.7842223 L167.298558,33.1450639 C164.151539,32.5516846 161.667053,31.3109784 159.900308,29.3690039 C157.526246,26.67182 156.311604,23.2733679 156.311604,19.0657587 C156.311604,14.7502669 157.526239,11.2439259 159.900308,8.60068328 C161.667053,6.65870885 164.151539,5.36406131 167.298558,4.82462328 L167.298558,0.29336623 Z" id="path-id-29119" fill="#71A95A" fill-rule="nonzero"></path>
                </g>
            </g>
        </g>
    </g>
</svg>