<svg id="logo_text" data-name="logo/text" xmlns="http://www.w3.org/2000/svg" width="99.147" height="26" viewBox="0 0 99.147 26">
  <g id="Group" transform="translate(0)">
    <path id="path-id-61075" d="M11.982,25.926V19.833H0V16.878c5.443,0,11.907,0,19.353.037v2.918h-3.78v6.094Zm0-12.594V4.026L6.01,13.332H2.079L11.037,0h4.536V13.332Z" fill="#211d1e"/>
    <path id="path-id-19881" d="M20.6,25.926l-2.419-6.648H6.2L3.78,25.926H0l3.742-9.565H20.6l3.742,9.565ZM15.914,13.369,12.171,3.435,8.429,13.369H4.914L10.13,0h4.082l5.216,13.369Z" transform="translate(23.095)" fill="#211d1e"/>
    <path id="path-id-22586" d="M11.907,22.639a5.446,5.446,0,0,0,3.251-1.662c1.058-1.219,1.55-3.028,1.55-5.466V0h3.628V15.918c0,3.324-.832,5.835-2.57,7.534a9.345,9.345,0,0,1-5.859,2.475Zm-9.336.812C.869,21.753,0,19.241,0,15.918V0H3.629V15.511a8.55,8.55,0,0,0,1.512,5.466A5.529,5.529,0,0,0,8.278,22.6v3.287A9.608,9.608,0,0,1,2.571,23.452Z" transform="translate(52.617 0.074)" fill="#211d1e"/>
    <path id="path-id-87093" d="M9.412,25.926V6.537h3.629V25.926Zm0-22.935V2.955H0V0H22.453V2.955H13.041v.037Z" transform="translate(76.695 0.037)" fill="#211d1e"/>
  </g>
</svg>
